<?xml version="1.0" standalone="no"?>
<!DOCTYPE svg PUBLIC "-//W3C//DTD SVG 20010904//EN"
 "http://www.w3.org/TR/2001/REC-SVG-20010904/DTD/svg10.dtd">
<svg version="1.0" xmlns="http://www.w3.org/2000/svg"
 width="432.000000pt" height="432.000000pt" viewBox="0 0 432.000000 432.000000"
 preserveAspectRatio="xMidYMid meet">
<metadata>
Created by potrace 1.11, written by Peter Selinger 2001-2013
</metadata>
<g transform="translate(0.000000,432.000000) scale(0.100000,-0.100000)"
fill="#000000" stroke="none">
<path d="M0 2160 l0 -2160 2160 0 2160 0 0 50 0 50 -825 0 -825 0 0 440 0 440
-1285 0 c-898 0 -1285 3 -1285 11 0 5 6 7 13 3 9 -6 9 -4 0 7 -16 17 -17 43
-1 33 7 -5 8 -3 2 7 -5 8 -9 44 -10 82 l0 67 1848 0 1848 0 0 450 0 450 -1847
0 -1848 0 -1 55 c-1 38 2 53 10 48 6 -3 6 0 -1 8 -7 7 -13 35 -13 61 l0 48
725 0 725 0 0 450 0 450 -725 0 -725 0 0 45 c0 29 4 45 13 45 8 0 9 2 1 8 -16
10 -17 95 -1 85 7 -4 6 0 -2 10 -13 16 114 17 2063 17 l2076 0 0 450 0 450
-2125 0 -2125 0 0 -2160z"/>
</g>
</svg>
